<?xml version="1.0" standalone="no"?>
<!DOCTYPE svg PUBLIC "-//W3C//DTD SVG 20010904//EN"
 "http://www.w3.org/TR/2001/REC-SVG-20010904/DTD/svg10.dtd">
<svg version="1.0" xmlns="http://www.w3.org/2000/svg"
 width="2048.000000pt" height="2048.000000pt" viewBox="0 0 2048.000000 2048.000000"
 preserveAspectRatio="xMidYMid meet">

<g transform="translate(0.000000,2048.000000) scale(0.100000,-0.100000)"
fill="#000000" stroke="none">
<path d="M0 10240 l0 -10240 10240 0 10240 0 0 10240 0 10240 -10240 0 -10240
0 0 -10240z m10545 6230 c1062 -76 2038 -512 2798 -1250 698 -677 1156 -1565
1301 -2520 38 -254 50 -413 49 -680 -1 -566 -96 -1075 -300 -1615 l-19 -50
-392 -3 c-216 -1 -392 1 -392 6 0 4 4 12 9 18 16 16 117 254 165 386 157 435
223 851 213 1342 -9 418 -61 729 -184 1096 -107 323 -251 618 -436 895 -364
545 -848 974 -1432 1270 -425 215 -847 337 -1330 386 -155 16 -556 16 -710 0
-486 -50 -904 -171 -1330 -386 -889 -450 -1553 -1220 -1870 -2169 -72 -216
-121 -434 -161 -712 -21 -153 -30 -609 -15 -771 43 -446 139 -819 312 -1211
32 -73 59 -138 59 -143 0 -6 -148 -8 -387 -7 l-387 3 -19 50 c-320 840 -387
1725 -196 2590 205 923 709 1769 1424 2389 376 326 768 569 1227 760 430 178
900 289 1373 325 160 12 468 12 630 1z m-495 -2723 c0 -7 -6 -21 -14 -32 -7
-11 -147 -254 -311 -540 -164 -286 -360 -628 -436 -760 l-138 -240 305 -3
c268 -2 304 -4 304 -18 0 -29 -91 -308 -131 -404 -59 -138 -109 -218 -195
-309 -156 -166 -312 -238 -597 -277 -221 -29 -939 -44 -1252 -24 -292 18 -401
61 -487 195 -112 172 -109 355 10 790 l38 140 382 3 c210 1 382 1 382 -1 0 -2
-11 -49 -24 -103 -47 -188 -44 -308 7 -336 12 -6 44 -17 72 -25 68 -20 496
-29 630 -15 272 30 297 72 490 802 25 96 55 207 66 245 24 86 152 565 185 695
28 108 53 199 59 218 6 18 655 18 655 -1z m3110 1 c0 -7 -37 -151 -82 -320
l-83 -308 -1253 0 c-713 0 -1252 4 -1250 9 2 5 91 148 198 319 l195 311 1138
1 c903 0 1137 -3 1137 -12z m-390 -1059 c0 -9 -8 -45 -19 -80 -18 -63 -46
-167 -91 -341 l-23 -88 -880 -2 -881 -3 -52 -195 c-29 -107 -53 -196 -54 -197
0 -2 430 -3 955 -3 757 0 955 -3 955 -12 0 -7 -38 -152 -83 -323 l-84 -310
-1471 -2 c-999 -1 -1472 1 -1472 8 0 6 54 79 120 162 65 84 252 323 415 532
493 635 659 848 671 859 7 8 298 11 1002 11 914 0 992 -1 992 -16z m-7450
-3259 c0 -445 -3 -543 -16 -607 -39 -190 -128 -273 -332 -308 -76 -13 -159
-16 -470 -13 -357 3 -380 4 -428 24 -71 29 -117 67 -157 127 -55 82 -68 142
-74 320 l-6 157 215 0 215 0 6 -87 c10 -161 22 -171 205 -183 151 -10 302 1
338 25 57 37 58 46 62 583 l4 492 219 0 219 0 0 -530z m1870 350 l0 -180 -570
0 -570 0 0 -115 0 -115 540 0 540 0 0 -145 0 -145 -540 0 -541 0 3 -112 3
-113 580 -2 580 -3 0 -175 0 -175 -797 0 c-439 0 -802 0 -808 0 -7 0 -10 250
-10 730 l0 730 795 0 795 0 0 -180z m1060 83 c41 -53 229 -289 418 -526 l342
-430 0 526 0 527 225 0 225 0 -2 -730 -3 -730 -344 -1 -345 0 -155 194 c-86
106 -239 296 -341 423 -102 126 -219 271 -260 323 l-75 94 -3 -517 -2 -516
-205 -1 c-113 -1 -213 -2 -222 -3 -17 -1 -18 41 -21 732 l-2 732 347 0 348 -1
75 -96z m1930 -173 l0 -270 101 0 102 0 41 37 c22 20 122 113 221 207 99 94
209 199 246 234 l66 62 299 0 299 0 -30 -26 c-16 -14 -50 -44 -75 -67 -25 -24
-124 -114 -220 -202 -173 -157 -338 -307 -415 -378 l-40 -37 25 -21 c14 -11
39 -33 55 -47 17 -15 200 -173 408 -351 207 -178 377 -326 377 -330 0 -3 -140
-5 -311 -4 -249 2 -315 5 -328 16 -9 8 -153 132 -319 276 l-304 261 -99 0 -99
0 0 -275 0 -274 -221 -3 c-121 -2 -223 -1 -225 1 -2 2 -4 332 -4 733 l0 728
225 0 225 0 0 -270z m2080 -462 l0 -733 -220 0 -220 0 0 733 0 732 220 0 220
0 0 -732z m1166 529 c88 -111 270 -339 404 -507 134 -168 248 -313 254 -322 6
-10 14 -18 18 -18 4 0 8 235 8 523 l0 522 220 3 220 2 0 -730 0 -729 -342 -3
c-217 -2 -345 1 -353 7 -7 6 -104 125 -216 265 -112 140 -242 303 -289 361
-47 58 -139 173 -205 255 l-120 149 -3 -517 c-2 -484 -3 -518 -20 -518 -18 -1
-412 -1 -424 0 -5 0 -8 329 -8 730 l0 730 348 0 347 0 161 -203z m2946 172
c88 -34 133 -69 162 -128 27 -53 46 -166 46 -277 l0 -74 -217 2 -217 3 -8 44
c-17 99 -26 101 -444 101 -292 0 -351 -2 -379 -15 -38 -19 -55 -51 -55 -104 0
-56 29 -87 93 -100 28 -6 255 -16 502 -21 479 -10 556 -18 640 -63 50 -28 100
-94 121 -160 21 -67 29 -225 15 -301 -16 -87 -68 -192 -114 -231 -48 -42 -130
-70 -262 -90 -84 -13 -188 -15 -635 -13 -531 3 -535 3 -592 26 -146 59 -194
134 -207 320 -5 64 -6 120 -4 125 2 4 101 7 218 7 l215 0 5 -27 c21 -103 32
-105 480 -100 303 3 366 6 397 19 42 19 58 43 58 88 0 43 -15 67 -53 87 -28
15 -88 18 -462 25 -549 11 -678 26 -751 90 -65 57 -100 152 -110 303 -16 226
53 396 181 451 91 39 150 42 740 41 l570 -2 67 -26z m-11792 -1909 l0 -80
-255 0 -255 0 0 -50 0 -50 240 0 240 0 0 -65 0 -65 -240 0 -240 0 0 -50 0 -50
260 0 260 0 0 -80 0 -80 -360 0 -360 0 0 325 0 325 355 0 355 0 0 -80z m710
-165 l0 -245 223 -2 222 -3 3 -77 3 -78 -326 0 -325 0 0 325 0 325 100 0 100
0 0 -245z m1630 165 l0 -80 -255 0 -255 0 0 -50 0 -50 240 0 c132 0 240 -1
241 -2 0 -2 3 -31 5 -65 l5 -63 -243 -2 -243 -3 -3 -47 -3 -48 260 0 261 0 0
-80 0 -80 -355 0 -355 0 0 325 0 325 350 0 350 0 0 -80z m1228 69 c77 -16 108
-64 114 -174 l3 -50 -97 -3 c-93 -3 -98 -2 -98 18 0 11 -9 29 -20 40 -18 18
-33 20 -195 20 -158 0 -177 -2 -194 -19 -39 -39 -38 -236 1 -286 19 -25 20
-25 196 -25 167 0 177 1 199 22 13 12 23 32 23 45 0 23 2 23 100 23 115 0 107
9 90 -109 -10 -70 -33 -104 -87 -127 -40 -17 -546 -20 -606 -3 -50 14 -113 71
-128 117 -16 49 -16 356 0 397 25 62 80 101 160 115 70 12 483 11 539 -1z
m1352 -69 l0 -80 -140 0 -140 0 0 -245 0 -245 -100 0 -100 0 0 245 0 245 -135
0 -135 0 0 80 0 80 375 0 375 0 0 -80z m1194 60 c52 -27 71 -80 71 -201 0
-118 -9 -138 -70 -163 l-29 -12 39 -20 c48 -23 63 -63 64 -166 l1 -68 -100 0
-100 0 0 63 c0 34 -4 68 -9 75 -14 23 -80 32 -233 32 l-148 0 0 -85 0 -85
-100 0 -100 0 0 325 0 326 343 -3 c280 -2 347 -6 371 -18z m776 -305 l0 -325
-100 0 -100 0 0 325 0 325 100 0 100 0 0 -325z m1230 314 c80 -18 120 -83 120
-195 l0 -35 -97 3 c-97 3 -98 3 -101 29 -5 42 -36 49 -216 49 -210 0 -208 1
-214 -128 -5 -109 1 -151 29 -180 19 -21 28 -22 198 -22 194 0 205 3 213 60 3
24 5 25 101 28 l97 3 0 -63 c-1 -91 -27 -143 -85 -169 -43 -19 -63 -20 -333
-17 -282 3 -288 3 -325 27 -21 13 -50 42 -65 64 -27 40 -27 41 -27 231 0 182
1 193 23 228 30 48 75 75 143 87 76 12 485 13 539 0z m1010 -234 l0 -245 220
0 220 0 0 -80 0 -80 -320 0 -320 0 0 325 0 325 100 0 100 0 0 -245z m1128 -2
l2 -243 220 0 220 0 0 -80 0 -80 -320 0 -320 0 0 325 0 326 98 -3 97 -3 3
-242z m1677 227 c40 -20 73 -90 77 -160 l3 -55 -96 -3 -96 -3 -6 31 c-9 44
-36 50 -213 50 -150 0 -188 -6 -206 -34 -4 -6 -8 -64 -8 -129 0 -112 1 -119
25 -142 24 -25 27 -25 197 -25 190 1 203 4 214 59 l7 31 98 0 99 0 0 -42 c-1
-109 -40 -179 -109 -198 -49 -13 -546 -13 -594 1 -54 15 -114 72 -129 123 -13
46 -17 309 -5 368 9 44 47 92 90 114 52 27 115 33 372 31 199 -2 256 -5 280
-17z m-8135 -1095 l0 -105 1861 0 1860 0 -1 88 c-1 48 -1 95 -1 105 1 16 25
17 367 17 l367 0 -7 -32 c-4 -18 -11 -159 -16 -313 -4 -154 -13 -296 -19 -315
-30 -97 -130 -198 -225 -225 -46 -13 -323 -15 -2346 -13 l-2295 3 -49 25 c-76
39 -132 94 -167 166 l-33 66 -7 286 c-4 158 -11 302 -15 320 l-6 32 366 0 366
0 0 -105z m4089 -1205 c165 -24 285 -150 298 -314 12 -149 -66 -279 -207 -345
l-55 -26 -2245 -3 c-2476 -2 -2296 -7 -2396 60 -258 174 -168 583 138 628 77
11 4390 12 4467 0z m-524 -1122 c-41 -189 -215 -394 -450 -529 -50 -29 -169
-83 -263 -120 -13 -5 -436 -9 -985 -9 -795 0 -970 3 -1008 14 -74 23 -252 110
-331 163 -190 126 -337 316 -373 481 l-7 32 1712 0 1712 0 -7 -32z"/>
<path d="M10180 7859 l0 -81 179 4 c205 5 221 10 221 78 0 73 -5 75 -214 78
l-186 3 0 -82z"/>
</g>
</svg>
